<svg width="150" height="39" viewBox="0 0 150 39" fill="none" xmlns="http://www.w3.org/2000/svg">
<g clip-path="url(#clip0_6_85)">
<path d="M51.6471 10.6053H57.6289V33.4209H51.6471V10.6053ZM139.163 23.6937V33.3338L133.145 33.3123V9.90125L143.983 19.2296V10.6058H149.95V34.2631L139.163 23.6937ZM21.5657 21.9516C21.5657 15.4762 26.8214 10.2208 33.2963 10.2208C36.2144 10.2208 38.8858 11.295 40.9403 13.0589L37.0639 17.4579C36.0477 16.6012 34.7336 16.0858 33.2963 16.0858C30.0588 16.0858 27.431 18.7136 27.431 21.9511C27.431 25.1887 30.0588 27.8165 33.2963 27.8165C34.7553 27.8165 36.0912 27.2794 37.1219 26.3936L40.9912 30.7999C38.9365 32.5927 36.2438 33.6746 33.2963 33.6746C26.8209 33.675 21.5657 28.4265 21.5657 21.9516Z" fill="white"/>
<path d="M69.0185 38.64L57.7013 8.57247H48.2426V33.5078H42.0503V8.57247H28.3452L31.5246 2.58365H62.122L69.0182 20.6005L75.9218 2.5835H105.547L108.813 8.57232H80.3425L69.0185 38.64Z" fill="white"/>
<path d="M88.1393 33.334V28.296H92.2481C92.9159 28.296 94.1863 28.2453 94.5056 27.1855C95.1662 24.9788 88.4006 21.3999 88.4006 15.9122C88.4006 11.76 91.4058 10.5188 93.4458 10.5188H99.6738V15.4694H95.8265C95.8265 15.4694 94.7232 15.4694 94.4182 15.9122C92.7484 18.3006 100.603 21.7921 100.603 28.209C100.603 31.5627 97.7284 33.334 94.861 33.334H88.1393ZM80.4299 10.5184H86.4189V33.334H80.4299V10.5184ZM101.576 10.5184H107.565V33.334H101.576V10.5184ZM17.0214 33.4209L15.4314 29.1745H8.00548L6.41593 33.4209H0.0498047L11.7226 0L23.3953 33.4209H17.0214ZM9.82017 23.0764H13.3556L11.5844 17.2401L9.82017 23.0764ZM108.653 21.9442C108.653 15.4618 113.916 10.1991 120.406 10.1991C126.888 10.1991 132.151 15.4618 132.151 21.9442C132.151 28.434 126.888 33.6967 120.406 33.6967C113.916 33.6967 108.653 28.4337 108.653 21.9442ZM114.569 21.9442C114.569 25.1671 117.183 27.7806 120.406 27.7806C123.621 27.7806 126.235 25.1672 126.235 21.9442C126.235 18.7286 123.621 16.1152 120.406 16.1152C117.183 16.1152 114.569 18.7281 114.569 21.9442Z" fill="white"/>
</g>
<defs>
<clipPath id="clip0_6_85">
<rect width="150" height="38.64" fill="white"/>
</clipPath>
</defs>
</svg>
