<svg width="137" height="26" viewBox="0 0 137 26" fill="none" xmlns="http://www.w3.org/2000/svg">
<path d="M133.455 7.24609H133.456C133.848 7.24636 134.235 7.16938 134.597 7.01955C134.958 6.86971 135.286 6.64998 135.563 6.37296C135.839 6.09693 136.058 5.76917 136.208 5.40839C136.358 5.04762 136.435 4.6609 136.435 4.27031V4.26486C136.435 3.87395 136.359 3.48681 136.209 3.12559C136.06 2.76437 135.841 2.43615 135.564 2.1597C135.288 1.88325 134.96 1.66399 134.599 1.51447C134.237 1.36495 133.85 1.28809 133.459 1.2883H133.453C133.062 1.28778 132.675 1.36459 132.314 1.5143C131.952 1.66401 131.624 1.88367 131.348 2.16064C131.072 2.43662 130.852 2.76437 130.703 3.12516C130.553 3.48595 130.476 3.8727 130.476 4.2633V4.26874C130.476 5.05829 130.79 5.81541 131.348 6.37374H131.35C131.625 6.65012 131.953 6.86944 132.313 7.01913C132.673 7.16882 133.06 7.24594 133.45 7.24609H133.455ZM133.456 7.70366H133.45C133 7.70356 132.554 7.61464 132.138 7.44198C131.722 7.26932 131.344 7.01633 131.026 6.69746H131.028C130.708 6.37926 130.454 6.00091 130.281 5.58421C130.108 5.16751 130.019 4.72069 130.02 4.26952V4.26408C130.02 3.3178 130.404 2.46102 131.024 1.84003C131.343 1.52061 131.722 1.26718 132.138 1.09426C132.555 0.921331 133.002 0.832302 133.453 0.832275H133.459C133.91 0.832228 134.356 0.921013 134.772 1.09354C135.187 1.26606 135.565 1.51894 135.883 1.83769C136.203 2.15611 136.457 2.53459 136.63 2.95138C136.804 3.36817 136.893 3.81506 136.893 4.26641V4.27186C136.892 5.18158 136.53 6.05381 135.887 6.69669C135.567 7.01581 135.188 7.2697 134.771 7.44234C134.354 7.61499 133.908 7.70379 133.456 7.70366Z" fill="#4338CA"/>
<path fill-rule="evenodd" clip-rule="evenodd" d="M131.681 2.20495H133.85C134.992 2.20495 135.256 3.21893 135.256 3.58856C135.256 4.06092 134.875 4.60955 134.452 4.75429L135.617 6.28965H134.653L133.688 4.87102H132.562V6.28965H131.682L131.681 2.20495ZM133.783 4.09205C134.019 4.09205 134.448 4.01657 134.448 3.59246C134.448 3.2127 134.357 3.03061 133.85 3.03061H132.561V4.09128L133.783 4.09205ZM22.8917 6.67952L16.804 13.1104L12.7831 10.3541C12.7831 10.3541 14.106 9.09112 12.899 8.17208C11.9582 7.45538 9.3178 8.97595 9.4322 11.9626C9.56604 15.4069 11.6944 17.3586 14.0461 17.3586C16.2296 17.3586 16.8032 15.5975 16.8032 15.5975H21.6956V19.6565L28.5748 1.51081H36.4423L42.7596 17.82C42.7596 17.82 43.2187 18.6791 43.6778 18.9095L43.7043 7.91061C43.7043 7.61179 43.6646 7.28028 43.4771 7.0655C43.1689 6.71065 42.6444 6.56357 42.6444 6.56357V1.51003H53.669C59.3871 1.51003 60.8539 3.06096 62.5123 6.04686C64.8009 2.96524 67.9526 0.93651 72.4458 0.93651C77.069 0.93651 80.3413 2.63996 82.2097 5.47256C84.8197 2.35359 89.0173 0.907715 92.8615 0.907715C97.5835 0.907715 101.53 3.19636 103.569 6.73633V1.51081H114.193L115.312 4.35197L116.146 1.51081H127.113V6.4484C127.113 6.4484 126.481 6.62193 126.307 6.90597C126.135 7.18767 126.166 8.08571 126.166 8.08571L127.696 17.8449C127.76 18.1624 127.873 18.4939 128.146 18.7367C128.464 19.02 128.892 18.9671 128.892 18.9671V24.5934H117.869V20.3437H111.552V24.605H101.187V21.8355C101.187 21.8355 97.3991 25.1669 92.5168 25.1669C86.2687 25.1669 82.093 20.574 82.093 20.574V24.5934H74.7446C68.2047 24.5934 62.5885 21.0129 61.0205 14.4871C60.2765 15.1975 56.9988 17.5391 53.0666 18.4216C52.7608 18.49 52.6083 18.6037 52.6083 18.9359C52.6083 19.5406 53.9001 19.7569 53.9001 19.7569V24.5941H13.5908C6.12646 24.5941 0.129761 19.4846 0.129761 12.9953C0.129761 6.50677 4.8051 0.993316 12.5566 0.993316C19.9626 0.993316 22.8917 6.67952 22.8917 6.67952Z" fill="#4338CA"/>
<path fill-rule="evenodd" clip-rule="evenodd" d="M19.9914 6.78002L16.7479 10.1807C16.7479 10.1807 16.5759 10.2678 16.4319 10.2678C16.288 10.2678 16.0872 10.1231 16.0872 10.1231L15.6857 9.7807C15.6857 9.7807 15.5705 9.75191 15.5705 9.63596C15.5705 9.52234 15.8864 9.23363 15.8864 8.68812C15.8864 8.14184 15.772 5.87421 12.2702 5.87421C8.76758 5.87421 7.21666 9.14726 7.21666 11.8468C7.21666 14.5455 8.8812 19.4839 14.3378 19.4839C17.5113 19.4839 18.1829 17.7026 18.1829 17.7026H19.2739V22.3546H13.3028C6.18323 22.3546 2.2207 16.7844 2.2207 12.765C2.2207 6.60259 7.57929 3.18324 12.4414 3.18324C17.1494 3.18324 19.9914 6.78002 19.9914 6.78002ZM30.0409 3.69373H34.9504L40.923 19.3119C41.0942 19.7415 41.3814 20.1454 41.6685 20.4885C41.9541 20.8333 42.6436 21.0644 42.6436 21.0644V22.4122H35.4391V21.034C35.4391 21.034 35.8967 21.0932 36.1278 20.6901C36.3574 20.2878 36.3574 19.9726 36.1854 19.5711C36.0134 19.1687 34.8049 15.9828 34.8049 15.9828H28.921C28.921 15.9828 27.7156 19.1983 27.5997 19.4855C27.4845 19.771 27.4845 20.2325 27.5997 20.5173C27.7911 20.9951 28.4619 21.0652 28.4619 21.0652V22.413H22.6901V21.0652C22.6901 21.0652 23.2154 20.8846 23.6091 20.4893C23.864 20.2386 24.0597 19.9342 24.1819 19.5983L30.0409 3.69373ZM29.8961 13.053H33.6874L31.735 7.59866L29.8961 13.053ZM44.9408 3.69373H54.1288C57.517 3.69373 60.9037 4.89758 60.9037 8.80252C60.9037 12.7075 58.4345 14.0864 56.3108 15.063C53.8588 16.1898 50.6262 17.0731 50.6262 17.0731V20.0582C50.6262 20.0582 50.655 20.2598 50.9414 20.6022C51.2301 20.9469 51.5452 21.034 51.5452 21.034V22.4122L44.8832 22.4114V21.0644C44.8832 21.0644 45.2847 20.978 45.5734 20.6901C45.8598 20.4029 45.9182 20.0582 45.9182 20.0582V6.56446C45.9182 6.56446 45.9454 5.98938 45.7166 5.76059C45.4871 5.52947 44.9408 5.21431 44.9408 5.21431V3.69373ZM50.683 6.50687V14.4879C50.683 14.4879 56.0797 12.2491 56.0797 9.09123C56.0797 5.18629 50.683 6.50687 50.683 6.50687ZM80.8011 6.81348L77.5561 10.2141C77.5561 10.2141 77.3841 10.2997 77.2402 10.2997C77.097 10.2997 76.8954 10.1558 76.8954 10.1558L76.4939 9.81105C76.4939 9.81105 76.3787 9.78381 76.3787 9.66942C76.3787 9.55425 76.6947 9.26476 76.6947 8.72236C76.6947 8.1753 76.5818 5.90767 73.0792 5.90767C69.5766 5.90767 68.0241 9.17994 68.0241 11.8787C68.0241 14.5767 69.6902 19.5158 75.1461 19.5158C78.3195 19.5158 78.9911 17.7353 78.9911 17.7353H80.0837V22.3865H74.1103C66.9915 22.3865 63.0282 16.8171 63.0282 12.7977C63.0282 6.63527 68.3867 3.21515 73.2504 3.21515C77.9577 3.21515 80.8011 6.81348 80.8011 6.81348ZM92.4304 22.9507C86.2274 22.9507 81.77 18.4225 81.77 12.9113C81.77 7.39634 86.3418 3.12488 92.4304 3.12488C98.5142 3.12488 103.088 7.39634 103.088 12.9113C103.088 18.4225 98.6278 22.9507 92.4304 22.9507ZM86.9161 12.9954C86.9161 18.5081 89.7293 19.8854 92.4304 19.8854C95.1268 19.8854 97.999 18.1625 97.999 12.9954C97.999 7.82823 94.7828 6.10533 92.4304 6.10533C90.074 6.10533 86.9161 7.48272 86.9161 12.9954ZM105.864 3.70618H112.697L115.167 11.3308L117.808 3.69451H124.956V4.81276C124.956 4.81276 124.481 5.01431 124.269 5.27267C124.011 5.58939 124.011 5.81817 124.068 6.27886C124.124 6.73721 125.962 19.1983 126.02 19.6567C126.078 20.1166 126.134 20.3749 126.25 20.6901C126.363 21.0037 126.911 21.2628 126.911 21.2628V22.4216H120.049V21.178C120.049 21.178 120.65 21.0932 120.853 20.8037C121.054 20.5166 121.138 20.3446 121.082 19.8854C121.025 19.4263 119.389 8.97528 119.389 8.97528L116.402 18.2201H112.785L109.827 9.54802L108.335 19.7695C108.335 19.7695 108.277 20.3835 108.507 20.7181C108.823 21.178 109.399 21.178 109.399 21.178V22.4122H103.453V21.0932C103.453 21.0932 103.926 21.0193 104.272 20.6177C104.615 20.217 104.674 19.6979 104.674 19.6979L106.842 6.21972C106.842 6.21972 106.972 5.71623 106.827 5.48745C106.677 5.24543 105.865 5.0431 105.865 5.0431L105.864 3.70618Z" fill="white"/>
</svg>
