<svg width="250" height="37" viewBox="0 0 250 37" fill="none" xmlns="http://www.w3.org/2000/svg">
<g clip-path="url(#clip0_6_89)">
<path fill-rule="evenodd" clip-rule="evenodd" d="M240.291 18.2308C240.291 17.2749 241.312 16.7655 242.427 16.7655C244.309 16.7655 245.712 17.8485 245.967 19.5049H249.665C249.315 16.0964 246.413 13.7077 242.491 13.7077C239.015 13.7077 236.337 15.5232 236.337 18.5808C236.337 21.9894 239.59 22.881 242.3 23.5821C244.244 24.0915 245.903 24.5057 245.903 25.6525C245.903 26.5762 244.851 27.2133 243.384 27.2133C241.407 27.2133 239.909 26.0982 239.685 24.442H235.987C236.337 27.8501 239.335 30.2711 243.384 30.2711C247.051 30.2711 249.92 28.328 249.92 25.27C249.92 21.9574 246.668 21.0654 243.958 20.3649C241.981 19.855 240.291 19.4093 240.291 18.2308ZM220.145 14.0577H216.096V29.9525H220.145V21.5436C220.145 19.3775 222.058 17.116 225.311 17.6256V13.7711C222.855 13.4841 221.101 14.8537 220.145 16.9241V14.0577ZM206.583 21.7982L203.49 15.3001L200.493 21.7982H206.583ZM203.65 6.69964L215.128 29.9528H210.474L208.209 25.2063H198.899L196.699 29.9528H192.171L203.65 6.69964ZM181.491 20.3009H185.604C184.84 16.4469 181.523 13.7391 177.569 13.7391C172.978 13.7391 169.247 17.2112 169.247 22.0211C169.247 26.799 172.978 30.2711 177.569 30.2711C181.523 30.2711 184.84 27.691 185.604 23.8367H181.491C180.853 25.5568 179.355 26.6399 177.569 26.6399C175.178 26.6399 173.265 24.7606 173.265 22.0848C173.265 19.3455 175.178 17.4977 177.569 17.4977C179.355 17.4977 180.853 18.5808 181.491 20.3009ZM163.404 29.9528H167.453V14.0579H163.404V29.9528ZM162.83 9.47087C162.83 10.9045 164.01 12.0829 165.413 12.0829C166.847 12.0829 168.027 10.9045 168.027 9.47112C168.027 8.03779 166.847 6.85904 165.413 6.85904C164.01 6.85904 162.83 8.03754 162.83 9.47087ZM150.469 16.0327V14.0579H146.419V29.9528H150.469V20.3329C150.469 18.4858 151.904 17.0203 153.785 17.0203C155.729 17.0203 157.101 18.4219 157.101 20.4921V29.953H161.15V20.1735C161.15 16.4469 159.014 13.7077 155.22 13.7077C153.179 13.7077 151.425 14.5993 150.469 16.0327ZM136.19 17.4663C133.735 17.4663 131.79 19.3136 131.79 22.0533C131.79 24.7286 133.735 26.6081 136.19 26.6081C138.646 26.6081 140.59 24.7286 140.59 22.0531C140.59 19.3136 138.646 17.4663 136.19 17.4663ZM136.19 30.2713C131.535 30.2713 127.773 26.7993 127.773 22.0213C127.773 17.2114 131.535 13.7394 136.19 13.7394C140.846 13.7394 144.608 17.2114 144.608 22.0213C144.608 26.7993 140.846 30.2713 136.19 30.2713ZM122.468 14.0579H118.418V29.9528H122.468V21.5436C122.468 19.3775 124.381 17.116 127.633 17.6256V13.7711C125.178 13.4841 123.424 14.8537 122.468 16.9241V14.0579ZM230.681 9.40766L226.695 10.6818V25.8439C226.695 28.2963 228.418 29.953 231.35 29.953H235.305V26.3531H232.499C231.255 26.3531 230.681 25.7799 230.681 24.7284V17.498H235.305V14.0577H230.681V9.40766ZM112.25 9.40766L108.265 10.6818V25.8439C108.265 28.2963 109.986 29.953 112.919 29.953H116.874V26.3531H114.068C112.824 26.3531 112.25 25.7799 112.25 24.7284V17.498H116.874V14.0577H112.25V9.40766ZM102.853 20.3014H106.966C106.201 16.4472 102.885 13.7394 98.931 13.7394C94.3397 13.7394 90.6088 17.2114 90.6088 22.0213C90.6088 26.7993 94.3397 30.2713 98.931 30.2713C102.885 30.2713 106.201 27.6912 106.966 23.8369H102.853C102.215 25.5571 100.716 26.6401 98.9307 26.6401C96.5397 26.6401 94.6265 24.7608 94.6265 22.085C94.6265 19.3458 96.5395 17.498 98.9307 17.498C100.716 17.498 102.215 18.5813 102.853 20.3014ZM84.8457 20.4289C84.495 18.5496 82.8368 17.2434 80.9552 17.2434C79.0739 17.2434 77.5119 18.4858 76.9698 20.4289H84.8457ZM89.2139 23.327H76.9383C77.4799 25.3342 79.2653 26.6719 81.4334 26.6719C82.6774 26.6719 83.8246 26.1942 84.495 25.2065H88.9906C87.7791 28.2646 84.9092 30.2713 81.37 30.2713C76.5868 30.2713 72.6975 26.7675 72.6975 21.9896C72.6975 17.1797 76.3959 13.7079 80.9552 13.7079C84.9092 13.7079 89.2457 16.6063 89.2457 22.7221C89.2457 22.9133 89.2139 23.1044 89.2139 23.3272V23.327ZM66.8547 29.9528H70.9044V6.38135L66.8547 7.65578V29.9528ZM48.8156 7.65578H65.0139V11.5735H53.2797V16.7974H62.7814V20.6515H53.2799V26.0985H65.0139V29.953H48.8156V7.65578Z" fill="white"/>
<path fill-rule="evenodd" clip-rule="evenodd" d="M18.43 36.7C8.31144 36.7 0.0799561 28.4683 0.0799561 18.35C0.0799561 8.23173 8.31169 0 18.43 0C28.548 0 36.78 8.23173 36.78 18.35C36.78 28.4683 28.5482 36.7 18.43 36.7ZM21.5357 11.2523H11.1654L9.59187 13.7812H19.9502L21.5357 11.2523ZM23.6551 11.2765L17.3154 21.3713H10.2834L11.9059 18.8404H16.1207L17.7307 16.3111H7.98689L6.37692 18.8404H8.6852L5.4825 23.8935H18.8482L23.785 16.1079L25.5849 18.8404H23.9622L22.4252 21.3713H27.2313L28.9003 23.8935H31.9663L23.6551 11.2765Z" fill="white"/>
</g>
<defs>
<clipPath id="clip0_6_89">
<rect width="250" height="36.7" fill="white"/>
</clipPath>
</defs>
</svg>
