<svg width="324" height="100" viewBox="0 0 324 100" fill="none" xmlns="http://www.w3.org/2000/svg">
<path d="M117.456 64.36C115.344 64.36 113.46 63.892 111.804 62.956C110.172 62.02 108.9 60.64 107.988 58.816C107.076 56.992 106.62 54.772 106.62 52.156C106.62 49.588 107.1 47.392 108.06 45.568C109.02 43.744 110.388 42.34 112.164 41.356C113.964 40.372 116.076 39.88 118.5 39.88C121.188 39.88 123.36 40.372 125.016 41.356C126.672 42.316 127.956 43.852 128.868 45.964L123.144 48.232C122.832 47.008 122.28 46.12 121.488 45.568C120.696 45.016 119.712 44.74 118.536 44.74C117.36 44.74 116.352 45.028 115.512 45.604C114.672 46.156 114.036 46.984 113.604 48.088C113.172 49.168 112.956 50.512 112.956 52.12C112.956 53.8 113.172 55.204 113.604 56.332C114.06 57.46 114.72 58.3 115.584 58.852C116.472 59.38 117.564 59.644 118.86 59.644C119.556 59.644 120.192 59.56 120.768 59.392C121.344 59.224 121.848 58.984 122.28 58.672C122.712 58.336 123.048 57.928 123.288 57.448C123.528 56.944 123.648 56.356 123.648 55.684V55.324H118.212V51.184H128.904V64H124.692L124.224 58.42L125.232 59.284C124.728 60.916 123.816 62.176 122.496 63.064C121.2 63.928 119.52 64.36 117.456 64.36ZM155.244 64H148.872L147.216 58.636H139.08L137.388 64H131.16L139.512 40.24H146.928L155.244 64ZM140.232 54.424H146.064L143.148 44.812L140.232 54.424ZM185.511 40.24V64H180.039V53.092L180.219 45.784H180.147L174.279 64H169.275L163.407 45.784H163.335L163.515 53.092V64H158.007V40.24H166.827L170.571 52.336L171.903 57.376H171.975L173.343 52.372L177.051 40.24H185.511ZM190.773 64V40.24H209.277V45.028H196.965V49.852H206.757V54.352H196.965V59.212H209.745V64H190.773ZM242.252 45.028H229.976V50.068H239.768V54.856H229.976V64H223.784V40.24H242.252V45.028ZM245.827 64V40.24H264.331V45.028H252.019V49.852H261.811V54.352H252.019V59.212H264.799V64H245.827ZM277.826 39.88C280.034 39.88 281.978 40.228 283.658 40.924C285.362 41.596 286.838 42.592 288.086 43.912L285.098 47.908C284.066 46.828 282.95 46.024 281.75 45.496C280.574 44.944 279.23 44.668 277.718 44.668C276.83 44.668 276.11 44.764 275.558 44.956C275.006 45.148 274.61 45.412 274.37 45.748C274.13 46.084 274.01 46.468 274.01 46.9C274.01 47.404 274.238 47.836 274.694 48.196C275.174 48.532 275.942 48.82 276.998 49.06L280.994 49.96C283.37 50.512 285.11 51.316 286.214 52.372C287.318 53.428 287.87 54.832 287.87 56.584C287.87 58.264 287.438 59.692 286.574 60.868C285.71 62.02 284.522 62.896 283.01 63.496C281.498 64.072 279.77 64.36 277.826 64.36C276.242 64.36 274.73 64.192 273.29 63.856C271.85 63.496 270.554 62.992 269.402 62.344C268.25 61.696 267.278 60.952 266.486 60.112L269.474 55.972C270.074 56.668 270.806 57.292 271.67 57.844C272.558 58.372 273.518 58.792 274.55 59.104C275.606 59.416 276.674 59.572 277.754 59.572C278.594 59.572 279.29 59.488 279.842 59.32C280.418 59.152 280.838 58.9 281.102 58.564C281.366 58.228 281.498 57.832 281.498 57.376C281.498 56.872 281.318 56.452 280.958 56.116C280.598 55.756 279.914 55.456 278.906 55.216L274.514 54.244C273.17 53.932 271.97 53.524 270.914 53.02C269.882 52.492 269.066 51.796 268.466 50.932C267.866 50.044 267.566 48.94 267.566 47.62C267.566 46.132 267.974 44.812 268.79 43.66C269.606 42.484 270.782 41.56 272.318 40.888C273.854 40.216 275.69 39.88 277.826 39.88ZM311.264 40.24V45.028H303.524V64H297.332V45.028H289.556V40.24H311.264Z" fill="white"/>
<path d="M59.375 42.1875H71.875" stroke="white" stroke-width="5" stroke-linecap="round" stroke-linejoin="round"/>
<path d="M28.125 42.1875H40.625" stroke="white" stroke-width="5" stroke-linecap="round" stroke-linejoin="round"/>
<path d="M34.375 35.9375V48.4375" stroke="white" stroke-width="5" stroke-linecap="round" stroke-linejoin="round"/>
<path d="M67.1877 21.7579L32.8127 21.8751C28.0382 21.8842 23.419 23.5716 19.7629 26.6422C16.1068 29.7127 13.6466 33.9709 12.8127 38.672L6.40644 71.5236C5.9951 73.8177 6.32735 76.1832 7.35474 78.2752C8.38213 80.3673 10.0509 82.0764 12.1178 83.1535C14.1847 84.2305 16.5416 84.6192 18.8449 84.2627C21.1482 83.9063 23.2774 82.8234 24.9221 81.172L41.7971 62.5001L67.1877 62.3829C72.5749 62.3829 77.7415 60.2429 81.5508 56.4335C85.3601 52.6242 87.5002 47.4576 87.5002 42.0704C87.5002 36.6832 85.3601 31.5167 81.5508 27.7073C77.7415 23.898 72.5749 21.7579 67.1877 21.7579Z" stroke="white" stroke-width="5" stroke-linecap="round" stroke-linejoin="round"/>
<path d="M87.1875 38.5548L93.5938 71.5236C94.0051 73.8177 93.6728 76.1832 92.6454 78.2752C91.6181 80.3673 89.9493 82.0764 87.8824 83.1535C85.8155 84.2305 83.4585 84.6192 81.1553 84.2627C78.852 83.9063 76.7228 82.8234 75.0781 81.172L58.2031 62.422" stroke="white" stroke-width="5" stroke-linecap="round" stroke-linejoin="round"/>
</svg>
