<svg width="150" height="27" viewBox="0 0 150 27" fill="none" xmlns="http://www.w3.org/2000/svg">
<g clip-path="url(#clip0_6_64)">
<path d="M53.4393 26.6441C48.0057 26.6441 42.9617 25.0146 39.5949 21.9926C37.0512 19.7095 35.8289 16.6084 35.8289 13.4165C35.8289 10.2635 37.1039 7.14096 39.5946 4.8699C42.7214 2.02022 48.2418 0.235596 53.4393 0.235596C59.1911 0.235596 63.7947 1.68438 67.3139 4.87773C69.8178 7.15 71.0284 10.2587 71.0284 13.4168C71.0284 16.4779 69.7437 19.7378 67.3139 21.9926C64.0368 25.0342 58.8869 26.6441 53.4393 26.6441V23.161C56.3234 23.161 58.9986 22.1652 60.867 20.3062C62.7224 18.4598 63.5869 16.1903 63.5869 13.4165C63.5869 10.7593 62.6543 8.27499 60.867 6.51295C59.0236 4.69731 56.2845 3.67563 53.4393 3.67563C50.5855 3.67563 47.8445 4.68676 45.9996 6.51295C44.2219 8.27439 43.287 10.7659 43.287 13.4165C43.287 16.059 44.2328 18.549 45.9996 20.3065C47.846 22.1433 50.5773 23.161 53.4393 23.161V26.6441ZM13.7246 0.248246C10.818 0.248246 7.51592 0.791917 4.71022 2.04492C2.12078 3.20033 0.00122132 5.06899 0.00122132 8.16686C1.65072e-05 10.9569 1.77319 12.5909 1.725 12.5457C2.47921 13.24 3.69336 14.4222 6.86773 15.1165C8.2864 15.4267 11.3195 15.9032 14.34 16.2189C17.3381 16.5352 20.2887 16.8358 21.4905 17.14C22.4453 17.383 24.0492 17.7141 24.0492 19.5135C24.0492 21.3056 22.3595 21.8526 22.0658 21.9713C21.7724 22.0872 19.7453 23.0173 16.1014 23.0173C13.4111 23.0173 10.1767 22.2083 8.99784 21.7866C7.63881 21.3029 6.21322 20.6631 4.88341 19.0388C4.55269 18.636 4.03101 17.5285 4.03101 16.4319H0.733143V25.6727H4.39878V24.4243C4.39878 24.2821 4.57649 23.6975 5.19184 23.9755C5.9575 24.3234 8.20507 25.2182 10.5551 25.7089C12.4818 26.1119 13.7243 26.4007 16.1198 26.4007C20.0282 26.4007 22.1278 25.764 23.5793 25.3495C24.9468 24.958 26.6365 24.255 28.0091 23.1604C28.7525 22.5685 30.3826 21.0514 30.3826 18.2975C30.3826 15.6541 28.9639 14.0135 28.4648 13.5144C27.785 12.8343 26.9546 12.3072 26.0893 11.9009C25.3354 11.546 24.1456 11.1198 23.1721 10.8816C21.2827 10.4177 17.0104 9.84546 14.9674 9.6316C12.8249 9.40781 9.10838 9.09998 7.62405 8.64065C7.17406 8.50119 6.25659 8.06415 6.25659 6.9991C6.25659 6.24157 6.67617 5.59941 7.50538 5.08044C8.82163 4.25574 11.4803 3.7431 14.2517 3.7431C17.5282 3.73105 20.3029 4.48014 22.0679 5.26929C22.6682 5.53736 23.3706 5.9223 23.9284 6.37771C24.558 6.89096 25.4417 7.95752 25.7613 9.44516H28.7221V1.40125H25.4161V2.33618C25.4161 2.63799 25.1043 3.03015 24.5149 2.70606C23.0354 1.92986 18.8523 0.255174 13.724 0.248246M86.174 1.70998L102.301 16.2641L102.135 6.46506C102.119 5.18013 101.882 4.64369 100.493 4.64369H97.4604V1.71239H111.249V4.64369H108.292C106.874 4.64369 106.785 5.097 106.768 6.46506L107.018 25.1887H102.295L83.7201 8.61053L83.724 20.3761C83.7403 21.655 83.8002 22.2574 85.118 22.2574H88.4297V25.1875H74.8877V22.2577H78.0533C79.2358 22.2577 79.1888 21.1303 79.1888 20.3095V6.57651C79.1888 5.69007 79.0644 4.6458 77.2078 4.6458H74.6392V1.70998H86.174ZM127.006 22.252C127.136 22.252 127.711 22.2354 127.822 22.2014C127.963 22.159 128.092 22.0867 128.202 21.9895C128.311 21.8922 128.398 21.7723 128.457 21.6381C128.499 21.5387 128.52 21.099 128.52 21.0035L128.522 16.371C128.522 16.2596 128.514 16.2114 128.325 15.9632C128.117 15.6921 119.878 6.35482 119.501 5.94368C119.032 5.43314 118.21 4.64399 116.961 4.64399H114.095V1.71149H130.266V4.64038H128.317C127.866 4.64038 127.566 5.06809 127.951 5.54338C127.951 5.54338 133.392 12.0515 133.444 12.1195C133.494 12.1888 133.537 12.2054 133.607 12.1421C133.675 12.0774 139.184 5.60302 139.227 5.55182C139.489 5.23796 139.312 4.64369 138.747 4.64369H136.747V1.71149H150V4.64369H147.039C145.965 4.64369 145.528 4.84249 144.72 5.75603C144.35 6.1741 136.023 15.6791 135.797 15.9367C135.678 16.0713 135.688 16.259 135.688 16.3704V21.0023C135.688 21.0963 135.709 21.5366 135.751 21.6354C135.81 21.7699 135.897 21.8899 136.007 21.9872C136.117 22.0845 136.246 22.1566 136.387 22.1987C136.498 22.233 137.066 22.2499 137.195 22.2499H140.224V25.1818H124.136V22.2496L127.007 22.252H127.006Z" fill="white"/>
</g>
<defs>
<clipPath id="clip0_6_64">
<rect width="150" height="26.88" fill="white"/>
</clipPath>
</defs>
</svg>
