<svg width="150" height="138" viewBox="0 0 150 138" fill="none" xmlns="http://www.w3.org/2000/svg">
<g clip-path="url(#clip0_6_83)">
<path d="M107.358 77.2025C101.272 91.0163 88.7486 98.2461 75.3727 98.079C49.715 96.8065 42.2517 67.1762 59.3983 56.4788L60.1529 57.233C59.8601 57.6169 58.8652 58.4239 57.2616 61.5612C55.3936 65.3734 54.8242 69.1729 55.0449 71.5495C56.3802 92.2624 85.3574 96.4749 95.3386 75.9996C108.043 47.9129 74.3678 19.3888 44.4683 41.189L43.7777 40.4992C51.6422 28.1594 67.0092 22.6364 81.686 26.3267C104.13 31.9373 116.178 55.3475 107.358 77.2021L107.358 77.2025ZM83.3691 76.7574C81.2916 79.7483 77.8321 81.7066 73.9147 81.7066C67.5602 81.7066 62.4095 76.5559 62.4095 70.2014C62.4095 64.1281 67.1155 59.1546 73.0801 58.7271C76.7944 58.5779 80.2555 60.585 81.9035 63.8394C83.6799 67.3485 83.03 71.6767 80.2627 74.5951L83.3691 76.7574ZM43.231 69.1593C42.6764 73.7286 43.0219 75.1554 43.0207 75.6985L42.0057 76.0676C41.6218 75.3162 40.6473 72.6684 40.2178 69.1105C39.1193 55.5259 48.3758 43.2841 62.4663 41.0054C75.3891 39.1059 87.7453 47.1319 90.6393 58.3663L89.6216 58.7371C89.3193 58.4023 88.7794 57.4934 86.8263 55.5135C71.2413 39.8561 46.7466 47.0375 43.231 69.1593ZM117.146 61.6255C116.224 16.7314 56.5941 -5.42917e-05 33.637 42.0696C34.6516 42.8034 36.0552 43.7967 37.0698 44.5306C35.311 48.2245 34.1385 51.9867 33.497 55.7374C33.0439 58.238 32.8164 60.7742 32.8172 63.3155C32.8172 86.6126 51.7029 105.498 75 105.498C98.297 105.498 117.183 86.6126 117.183 63.3151C117.183 62.7493 117.168 62.1866 117.146 61.6255ZM140.294 118.311H133.562V137.408H128.341V118.311H121.575V113.365H140.294V118.311ZM108.339 118.311V123.875H118.541V127.86H108.339V137.408H103.119V113.365H119.571V118.311H108.339ZM95.7013 125.386C95.7013 121.059 92.954 117.899 88.763 117.899C86.3248 117.899 84.5041 118.826 83.4051 120.028L84.2297 120.853C82.9584 121.917 81.8251 123.395 81.8251 126.039C81.8251 129.68 84.4013 132.874 88.7634 132.874C92.954 132.874 95.7017 129.714 95.7017 125.386H95.7013ZM100.991 125.386C100.991 132.462 95.9072 137.82 88.7634 137.82C81.4476 137.82 76.536 132.565 76.536 126.211C76.536 122.089 78.15 119.101 80.5198 117.143L79.696 116.319C81.5164 114.43 84.8476 112.953 88.7634 112.953C95.9072 112.953 100.991 118.38 100.991 125.386ZM68.8335 123.085C72.9549 124.528 75.0844 126.383 75.0844 130.092C75.0844 135.072 71.2721 137.82 66.7728 137.82C62.6167 137.82 59.4222 135.966 58.083 132.53L62.2387 129.44C62.9946 131.603 64.9521 132.943 66.91 132.943C68.6272 132.943 69.8641 132.015 69.8641 130.47C69.8641 129.027 68.9363 128.134 65.5015 126.898C61.7921 125.558 59.0443 123.703 59.0443 119.72C59.0443 115.873 62.2387 112.953 66.8756 112.953C70.5507 112.953 73.4016 114.43 74.7413 117.349L70.5847 120.234C69.7949 118.448 68.5588 117.453 66.6697 117.453C65.0896 117.453 63.9219 118.311 63.9219 119.548C63.9219 120.955 65.2268 121.814 68.8335 123.085ZM50.9959 113.365H56.2162V137.408H50.9959V113.365ZM40.249 132.805C42.4812 132.805 43.7521 131.775 43.7521 129.783C43.7521 127.791 42.4812 126.761 40.249 126.761H37.3641V132.805H40.249ZM37.3641 117.968V123.051H40.1118C41.7258 123.051 42.8251 122.123 42.8251 120.509C42.8251 118.895 41.7258 117.968 40.1118 117.968H37.3641ZM48.9732 130.264C48.9732 134.42 45.71 137.408 40.4553 137.408H32.143V113.365H40.1466C44.7831 113.365 47.8403 115.597 47.8403 119.169C47.8403 121.883 46.5694 123.531 44.6803 124.322C47.2217 125.283 48.9732 127.035 48.9732 130.264ZM29.5588 113.365V127.791C29.5588 133.527 26.0553 137.82 19.6325 137.82C13.2097 137.82 9.70612 133.527 9.70612 127.79V113.365H14.9268V127.379C14.9268 130.882 16.5756 132.874 19.6325 132.874C22.6893 132.874 24.3377 130.882 24.3377 127.379V113.365H29.5588Z" fill="white"/>
</g>
<defs>
<clipPath id="clip0_6_83">
<rect width="150" height="137.82" fill="white"/>
</clipPath>
</defs>
</svg>
