<svg width="150" height="46" viewBox="0 0 150 46" fill="none" xmlns="http://www.w3.org/2000/svg">
<g clip-path="url(#clip0_6_69)">
<path d="M146.408 36.8318L137.672 24.9761L128.946 36.8318H125.352L135.853 22.5076L126.262 9.48718H129.857L137.672 20.1063L145.487 9.48718H149.08L139.496 22.5052L150 36.8318H146.408ZM78.3384 36.827L67.8248 22.5052L77.4158 9.48718H73.8209L66.0034 20.1087L58.193 9.48718H54.6078L64.194 22.5052L53.6827 36.827H57.2824L66.0082 24.9761L74.7412 36.827H78.3384Z" fill="white"/>
<path d="M98.3256 23.5406C97.784 23.0789 97.1806 22.695 96.533 22.3998C97.5268 21.8718 98.3579 21.083 98.9372 20.1182C99.5165 19.1534 99.8221 18.0491 99.8211 16.9237C99.8211 15.1742 99.1764 9.48482 90.9323 9.48482H79.8291V21.2734H76.1312C75.6519 21.8989 74.5615 23.4016 74.1469 24.0175H79.8291V36.827L90.9347 36.8294C96.95 36.8294 100.686 33.7762 100.686 28.8465C100.686 26.6944 99.8738 24.8659 98.3256 23.5406ZM82.8991 12.3391H90.9347C93.1084 12.3391 96.7511 12.8807 96.7511 16.6841C96.7511 19.5599 94.6302 21.2734 90.9347 21.2734H82.8991V12.3391ZM90.9323 33.9775H82.8967V24.0247H90.9323C93.9783 24.0247 97.6235 24.8659 97.6235 28.7866C97.6235 33.3017 93.4319 33.9775 90.9323 33.9775ZM115.13 8.85692C107.449 8.85692 102.081 14.7309 102.081 23.1428C102.081 31.5666 107.449 37.4358 115.13 37.4358C122.804 37.4358 128.158 31.5666 128.158 23.1428C128.158 14.7309 122.804 8.85692 115.13 8.85692ZM115.13 34.5431C109.278 34.5431 105.177 29.8531 105.177 23.1428C105.177 16.4324 109.278 11.7448 115.13 11.7448C120.973 11.7448 125.05 16.4324 125.05 23.1428C125.05 29.8531 120.973 34.5431 115.13 34.5431ZM6.80143 6.56103L6.77986 6.5802C4.62926 8.69758 2.92208 11.2246 1.75801 14.0091C0.593941 16.7936 -0.00368907 19.782 2.11555e-05 22.8C-0.00678867 27.7892 1.63061 32.6416 4.65891 36.6066C4.69007 36.6449 4.738 36.6665 4.78114 36.6449C4.82188 36.6209 4.82427 36.5706 4.8075 36.5275C3.07 31.1544 11.9516 18.1316 16.541 12.6722C16.5554 12.6531 16.5746 12.6315 16.5746 12.6051C16.5746 12.574 16.553 12.55 16.5314 12.5308C8.81213 4.8475 6.7511 6.60417 6.77986 6.5802M38.7858 6.56103L38.8073 6.5802C40.9577 8.69761 42.6646 11.2247 43.8283 14.0092C44.9919 16.7937 45.5891 19.7822 45.5848 22.8C45.5916 27.7892 43.9542 32.6416 40.9259 36.6066C40.8971 36.6449 40.8468 36.6665 40.8037 36.6449C40.7653 36.6209 40.7629 36.5706 40.7773 36.5275C42.5148 31.1544 33.6404 18.122 29.0534 12.6602C29.0366 12.6411 29.0198 12.6195 29.0198 12.5955C29.0198 12.562 29.039 12.538 29.063 12.5189C36.7847 4.83552 38.8313 6.60417 38.8049 6.5802M22.7936 0.00646973C27.3926 0.00646973 31.1767 1.26705 34.6661 3.34247C34.7092 3.36403 34.7212 3.41197 34.7044 3.4551C34.6877 3.49584 34.6397 3.50543 34.5942 3.49345C30.1822 2.53962 23.4742 6.35253 22.8415 6.73358C22.8272 6.74317 22.8128 6.75275 22.7936 6.75275C22.772 6.75275 22.7577 6.74317 22.7433 6.73358C21.0609 5.76777 14.861 2.51805 10.957 3.51741C10.9139 3.527 10.866 3.51981 10.8468 3.47667C10.8386 3.45642 10.838 3.4339 10.845 3.41323C10.8521 3.39255 10.8663 3.37509 10.8851 3.36403C14.3745 1.26705 18.2066 0.00646973 22.7936 0.00646973ZM22.7936 18.2873C22.82 18.2873 22.8487 18.3089 22.8655 18.3233C29.6861 23.5094 41.3597 36.331 37.796 39.9569L37.8008 39.9521L37.7984 39.9569H37.796C33.6473 43.5984 28.3113 45.6032 22.7912 45.596C17.2704 45.6027 11.9363 43.598 7.78641 39.9569C4.22993 36.331 15.9011 23.5094 22.7145 18.3233C22.7337 18.3089 22.7648 18.2873 22.7936 18.2873Z" fill="white"/>
</g>
<defs>
<clipPath id="clip0_6_69">
<rect width="150" height="45.6" fill="white"/>
</clipPath>
</defs>
</svg>
